<svg width="52" height="30" viewBox="0 0 52 30" fill="none" xmlns="http://www.w3.org/2000/svg">
<path d="M24.2215 9.225C23.3996 7.3875 22.3536 5.8125 20.9714 4.425C19.6266 3.075 18.0203 1.9875 16.2272 1.2C14.3967 0.412499 12.4915 0 10.4369 0H0.5L5.46843 5.025H10.4369C11.7817 5.025 13.0892 5.2875 14.2846 5.775C15.48 6.3 16.5634 7.05 17.4599 7.95C18.3938 8.8875 19.1036 9.9375 19.6266 11.1375C20.1496 12.375 20.4111 13.65 20.4111 15C20.4111 16.35 20.1496 17.625 19.6266 18.8625C19.1036 20.0625 18.3938 21.1125 17.4973 22.05C16.6007 22.9875 15.5174 23.7 14.322 24.225C13.1265 24.7125 11.8191 24.975 10.4369 24.975H5.46843L0.5 30H10.4369C12.4915 30 14.434 29.5875 16.2272 28.8C18.0576 28.0125 19.664 26.925 21.0088 25.575C22.3536 24.1875 23.3996 22.6125 24.2215 20.775C25.006 18.975 25.3795 17.0625 25.3795 15C25.3795 12.9375 25.006 11.025 24.2215 9.225Z" fill="url(#paint0_linear_256_4027)"/>
<path d="M46.5316 0V12.4875H31.5889L26.6205 17.5125V30H31.5889V17.5125H46.5316V30H51.5V0H46.5316Z" fill="url(#paint1_linear_256_4027)"/>
<defs>
<linearGradient id="paint0_linear_256_4027" x1="0.499986" y1="30" x2="26.7211" y2="-14.5758" gradientUnits="userSpaceOnUse">
<stop stop-color="#291E69"/>
<stop offset="0.505208" stop-color="#BEB8F4"/>
<stop offset="1" stop-color="#291E69"/>
</linearGradient>
<linearGradient id="paint1_linear_256_4027" x1="0.499986" y1="30" x2="26.7211" y2="-14.5758" gradientUnits="userSpaceOnUse">
<stop stop-color="#291E69"/>
<stop offset="0.505208" stop-color="#BEB8F4"/>
<stop offset="1" stop-color="#291E69"/>
</linearGradient>
</defs>
</svg>
