<svg width="68" height="40" viewBox="0 0 68 40" fill="none" xmlns="http://www.w3.org/2000/svg">
<path d="M31.6286 12.3C30.5328 9.85 29.1382 7.75 27.2953 5.9C25.5021 4.1 23.3604 2.65 20.9695 1.6C18.5289 0.549999 15.9886 0 13.2492 0H0L6.62458 6.7H13.2492C15.0423 6.7 16.7856 7.05 18.3795 7.7C19.9734 8.4 21.4178 9.4 22.6132 10.6C23.8584 11.85 24.8048 13.25 25.5021 14.85C26.1995 16.5 26.5481 18.2 26.5481 20C26.5481 21.8 26.1995 23.5 25.5021 25.15C24.8048 26.75 23.8584 28.15 22.663 29.4C21.4676 30.65 20.0232 31.6 18.4293 32.3C16.8354 32.95 15.0921 33.3 13.2492 33.3H6.62458L0 40H13.2492C15.9886 40 18.5787 39.45 20.9695 38.4C23.4102 37.35 25.552 35.9 27.3451 34.1C29.1382 32.25 30.5328 30.15 31.6286 27.7C32.6746 25.3 33.1727 22.75 33.1727 20C33.1727 17.25 32.6746 14.7 31.6286 12.3Z" fill="url(#paint0_linear_256_622)"/>
<path d="M61.3754 0V16.65H41.4519L34.8273 23.35V40H41.4519V23.35H61.3754V40H68V0H61.3754Z" fill="url(#paint1_linear_256_622)"/>
<defs>
<linearGradient id="paint0_linear_256_622" x1="5.22604e-07" y1="20" x2="68" y2="20" gradientUnits="userSpaceOnUse">
<stop stop-color="#BE5EFF"/>
<stop offset="1" stop-color="#5A34FF"/>
</linearGradient>
<linearGradient id="paint1_linear_256_622" x1="5.22604e-07" y1="20" x2="68" y2="20" gradientUnits="userSpaceOnUse">
<stop stop-color="#BE5EFF"/>
<stop offset="1" stop-color="#5A34FF"/>
</linearGradient>
</defs>
</svg>
