<svg width="966" height="200" viewBox="0 0 966 200" fill="none" xmlns="http://www.w3.org/2000/svg">
<path d="M71.2686 142.945C71.2686 150.447 69.0397 156.345 64.582 160.64C60.1243 164.88 54.1174 167 46.561 167H7.66504V39.3853H46.561C54.1174 39.3853 60.1243 41.5597 64.582 45.9087C69.0397 50.2033 71.2686 56.1016 71.2686 63.6035V142.945ZM52.106 139.765V66.4575C52.106 59.3361 48.3822 55.7754 40.9346 55.7754H26.7461V150.61H40.4453C48.2191 150.61 52.106 146.995 52.106 139.765ZM163.967 167H144.886V39.3853H163.967V167ZM300.861 155.339C300.861 163.113 296.974 167 289.2 167H249.407C241.851 167 238.073 163.113 238.073 155.339V51.1274C238.073 43.2993 241.851 39.3853 249.407 39.3853H289.2C296.974 39.3853 300.861 43.2993 300.861 51.1274V80.9722H281.861V55.7754H257.154V150.61H281.861V123.782H300.861V155.339ZM427.236 167H374.315V39.3853H426.747V56.2646H393.396V93.5298H422.099V110.083H393.396V150.121H427.236V167ZM562.989 167H543.745V109.757H517.896V167H498.815V39.3853H517.896V91.9805H543.745V39.3853H562.989V167ZM689.609 167H636.688V39.3853H689.12V56.2646H655.769V93.5298H684.472V110.083H655.769V150.121H689.609V167ZM825.851 167H806.933L803.1 142.782H779.208L775.376 167H756.539V166.674L781.247 39.2222H801.306L825.851 167ZM800.409 126.392L791.114 68.8223L781.736 126.392H800.409ZM958.587 142.945C958.587 150.447 956.358 156.345 951.9 160.64C947.442 164.88 941.435 167 933.879 167H894.983V39.3853H933.879C941.435 39.3853 947.442 41.5597 951.9 45.9087C956.358 50.2033 958.587 56.1016 958.587 63.6035V142.945ZM939.424 139.765V66.4575C939.424 59.3361 935.7 55.7754 928.253 55.7754H914.064V150.61H927.763C935.537 150.61 939.424 146.995 939.424 139.765Z" fill="white"/>
<path d="M0 100.5L9.75 97.4689V103.531L0 100.5Z" fill="white"/>
<path d="M136 99.5L145.75 96.4689V102.531L136 99.5Z" fill="white"/>
<path d="M229 99.5L238.75 96.4689V102.531L229 99.5Z" fill="white"/>
<path d="M365 100.5L374.75 97.4689V103.531L365 100.5Z" fill="white"/>
<path d="M490 100.5L499.75 97.4689V103.531L490 100.5Z" fill="white"/>
<path d="M627 100.5L636.75 97.4689V103.531L627 100.5Z" fill="white"/>
<path d="M760 100.5L769.75 97.4689V103.531L760 100.5Z" fill="white"/>
<path d="M788 100.5L797.75 97.4689V103.531L788 100.5Z" fill="white"/>
<path d="M931 100.5L940.75 97.4689V103.531L931 100.5Z" fill="white"/>
<path d="M886 100.5L895.75 97.4689V103.531L886 100.5Z" fill="white"/>
<path d="M804 100.5L813.75 97.4689V103.531L804 100.5Z" fill="#151020"/>
<path d="M777 100.5L786.75 97.4689V103.531L777 100.5Z" fill="#151020"/>
<path d="M906 100.5L915.75 97.4689V103.531L906 100.5Z" fill="#151020"/>
<path d="M675 100.5L684.75 97.4689V103.531L675 100.5Z" fill="#151020"/>
<path d="M62 100.5L71.75 97.4689V103.531L62 100.5Z" fill="#0F1012"/>
<path d="M155 100.5L164.75 97.4689V103.531L155 100.5Z" fill="#0F1012"/>
<path d="M248 100.5L257.75 97.4689V103.531L248 100.5Z" fill="#0F1012"/>
<path d="M413 100.5L422.75 97.4689V103.531L413 100.5Z" fill="#0F1012"/>
<path d="M554 100.5L563.75 97.4689V103.531L554 100.5Z" fill="#0F1012"/>
<path d="M950 100.5L959.75 97.4689V103.531L950 100.5Z" fill="#0F1012"/>
</svg>
