<svg width="30" height="28" viewBox="0 0 30 28" fill="none" xmlns="http://www.w3.org/2000/svg">
<path d="M25.625 0.25H13.125C11.9651 0.251241 10.853 0.712576 10.0328 1.53278C9.21257 2.35298 8.75124 3.46506 8.75 4.625V12.75H20.732L16.6164 8.63359C16.3919 8.39727 16.2686 8.08258 16.2727 7.75663C16.2769 7.43068 16.4082 7.11925 16.6387 6.88875C16.8692 6.65824 17.1807 6.52691 17.5066 6.52273C17.8326 6.51856 18.1473 6.64188 18.3836 6.86641L24.6336 13.1164C24.8678 13.3508 24.9994 13.6686 24.9994 14C24.9994 14.3314 24.8678 14.6492 24.6336 14.8836L18.3836 21.1336C18.1473 21.3581 17.8326 21.4814 17.5066 21.4773C17.1807 21.4731 16.8692 21.3418 16.6387 21.1113C16.4082 20.8808 16.2769 20.5693 16.2727 20.2434C16.2686 19.9174 16.3919 19.6027 16.6164 19.3664L20.732 15.25H8.75V23.375C8.75 25.8789 11.3898 27.75 13.75 27.75H25.625C26.7849 27.7488 27.897 27.2874 28.7172 26.4672C29.5374 25.647 29.9988 24.5349 30 23.375V4.625C29.9988 3.46506 29.5374 2.35298 28.7172 1.53278C27.897 0.712576 26.7849 0.251241 25.625 0.25ZM1.25 12.75C0.918479 12.75 0.600537 12.8817 0.366117 13.1161C0.131696 13.3505 0 13.6685 0 14C0 14.3315 0.131696 14.6495 0.366117 14.8839C0.600537 15.1183 0.918479 15.25 1.25 15.25H8.75V12.75H1.25Z" fill="url(#paint0_linear_256_628)"/>
<defs>
<linearGradient id="paint0_linear_256_628" x1="2.30561e-07" y1="14" x2="30" y2="14" gradientUnits="userSpaceOnUse">
<stop stop-color="#BE5EFF"/>
<stop offset="1" stop-color="#5A34FF"/>
</linearGradient>
</defs>
</svg>
