<svg width="34" height="34" viewBox="0 0 34 34" fill="none" xmlns="http://www.w3.org/2000/svg">
<path d="M16.9998 0.333374C26.1998 0.333374 33.6665 7.80004 33.6665 17C33.6665 26.2 26.1998 33.6667 16.9998 33.6667C7.79984 33.6667 0.333172 26.2 0.333172 17C0.333172 7.80004 7.79984 0.333374 16.9998 0.333374ZM6.99984 20.2834H15.3332L11.5665 16.5167C12.3388 15.6084 13.2991 14.8787 14.3811 14.378C15.4631 13.8773 16.6409 13.6175 17.8332 13.6167C21.7832 13.6167 25.0832 16.3834 25.9332 20.0834L27.5332 19.55C26.4665 15.1834 22.5332 11.95 17.8332 11.95C14.8665 11.95 12.2165 13.2667 10.3832 15.3334L6.99984 11.95V20.2834Z" fill="url(#paint0_linear_256_617)"/>
<defs>
<linearGradient id="paint0_linear_256_617" x1="33.6665" y1="17" x2="0.333172" y2="17" gradientUnits="userSpaceOnUse">
<stop stop-color="#BE5EFF"/>
<stop offset="1" stop-color="#5A34FF"/>
</linearGradient>
</defs>
</svg>
